<?xml version="1.0" standalone="no"?>
<!DOCTYPE svg PUBLIC "-//W3C//DTD SVG 20010904//EN"
 "http://www.w3.org/TR/2001/REC-SVG-20010904/DTD/svg10.dtd">
<svg version="1.0" xmlns="http://www.w3.org/2000/svg"
 width="512.000000pt" height="512.000000pt" viewBox="0 0 512.000000 512.000000"
 preserveAspectRatio="xMidYMid meet">
<metadata>
Created by potrace 1.14, written by Peter Selinger 2001-2017
</metadata>
<g transform="translate(0.000000,512.000000) scale(0.100000,-0.100000)"
fill="#000000" stroke="none">
<path d="M1200 5103 c-34 -24 -1167 -1159 -1186 -1188 -8 -12 -14 -38 -12 -56
1 -30 47 -79 435 -469 l433 -435 -165 -165 c-91 -92 -166 -174 -166 -183 -2
-22 -2 -43 0 -63 1 -17 2159 -2179 2251 -2255 144 -120 308 -203 487 -248 117
-29 136 -32 288 -36 300 -7 554 74 795 257 66 50 408 387 483 476 39 46 109
156 145 227 31 62 88 215 97 263 22 109 27 153 30 272 2 74 -1 164 -6 200 -34
231 -138 467 -282 635 -28 33 -540 550 -1138 1148 -792 792 -1096 1090 -1119
1097 -19 6 -41 5 -58 -1 -15 -5 -99 -82 -187 -169 l-160 -160 -430 430 c-396
395 -433 430 -470 435 -30 4 -47 1 -65 -12z"/>
</g>
</svg>
